<svg version="1.1" xmlns="http://www.w3.org/2000/svg" xmlns:xlink="http://www.w3.org/1999/xlink" width="68.86488" height="65.69346" viewBox="0,0,68.86488,65.69346"><g transform="translate(-190.10712,-139.91266)"><g data-paper-data="{&quot;isPaintingLayer&quot;:true}" fill="none" fill-rule="nonzero" stroke="#ff0000" stroke-width="5" stroke-linejoin="miter" stroke-miterlimit="10" stroke-dasharray="" stroke-dashoffset="0" style="mix-blend-mode: normal"><path d="M192.60712,157.62007c0,0 9.02242,-9.02242 12.11488,-12.11488c1.91875,-1.91875 3.82398,-0.90761 3.06852,2.47098c-1.85226,8.2837 -9.59048,42.89074 -9.59048,42.89074" stroke-linecap="round"/><path d="M213.42305,165.58358c-1.69259,13.20222 0.56825,24.37049 5.04974,24.94504c4.48149,0.57455 9.48657,-9.6622 11.17916,-22.86441c1.69259,-13.20222 -0.56825,-24.37049 -5.04974,-24.94504c-4.48149,-0.57455 -9.48657,9.6622 -11.17916,22.86441z" stroke-linecap="butt"/><path d="M235.8903,165.27707c-1.69259,13.20221 0.56825,24.37049 5.04974,24.94504c4.48148,0.57455 9.48657,-9.6622 11.17916,-22.86442c1.69259,-13.20221 -0.56826,-24.37049 -5.04974,-24.94504c-4.48148,-0.57455 -9.48656,9.6622 -11.17915,22.86442z" stroke-linecap="butt"/><path d="M192.79392,203.10612c0,0 17.74248,-5.09442 28.08624,-6.81838c10.85737,-1.80956 35.59184,-3.79463 35.59184,-3.79463" stroke-linecap="round"/></g></g></svg>